<?xml version="1.0" standalone="no"?>
<svg xmlns="http://www.w3.org/2000/svg" width="1024" height="1024" viewBox="0 0 1024 1024" preserveAspectRatio="xMidYMid meet">
<g transform="translate(0,1024) scale(0.1,-0.1)" fill="#e07850" stroke="none">
<path d="M3860 9310 c-1003 -47 -1965 -522 -2626 -1295 -482 -565 -781 -1274
-859 -2035 -22 -207 -17 -628 9 -820 93 -689 353 -1300 780 -1840 122 -154
423 -456 571 -573 363 -288 841 -545 1265 -682 634 -204 1431 -248 2190 -120
445 75 883 212 1242 390 54 27 100 46 103 43 3 -2 113 -391 244 -862 131 -472
244 -863 250 -869 13 -13 39 -1 53 24 4 8 163 572 354 1254 190 682 351 1245
357 1251 7 6 523 151 1147 323 624 171 1145 316 1158 322 70 29 60 32 -1140
364 -637 176 -1161 325 -1167 330 -5 6 -165 570 -357 1255 -191 685 -354 1253
-362 1263 -21 23 -41 21 -52 -5 -5 -13 -165 -581 -355 -1262 -190 -682 -349
-1244 -353 -1248 -4 -4 -527 -152 -1162 -328 -634 -177 -1157 -323 -1162 -326
-11 -7 -10 -31 1 -38 4 -3 365 -105 802 -226 436 -122 795 -223 797 -225 11
-11 -160 -79 -302 -120 -308 -88 -621 -96 -981 -24 -1073 215 -1919 1040
-2163 2109 -52 225 -67 366 -65 625 1 257 20 421 74 642 311 1274 1468 2159
2769 2120 307 -9 548 -53 830 -149 262 -90 509 -219 717 -375 154 -115 229
-181 435 -382 87 -85 161 -151 164 -148 16 16 -134 245 -254 390 -143 172
-276 299 -494 469 -698 546 -1565 820 -2458 778z"/>
</g>
</svg>
